<svg width="246" height="67" viewBox="0 0 246 67" fill="none" xmlns="http://www.w3.org/2000/svg">
<path d="M44.1875 37.1797C44.1719 37.2109 44.0781 37.3438 43.9062 37.5781C43.7344 37.8125 43.4844 38.1016 43.1562 38.4453C42.8438 38.7734 42.4453 39.1328 41.9609 39.5234C41.4922 39.8984 40.9297 40.25 40.2734 40.5781C39.6328 40.8906 38.9062 41.1562 38.0938 41.375C37.2812 41.5938 36.3828 41.7031 35.3984 41.7031C33.8672 41.7031 32.4297 41.5078 31.0859 41.1172C29.7422 40.7422 28.4453 40.2578 27.1953 39.6641C25.9609 39.0703 24.7422 38.4141 23.5391 37.6953C22.3359 36.9766 21.1094 36.2734 19.8594 35.5859C19.0938 36.8672 18.2109 37.9141 17.2109 38.7266C16.2266 39.5234 15.1953 40.1484 14.1172 40.6016C13.0547 41.0547 11.9922 41.3594 10.9297 41.5156C9.88281 41.6875 8.91406 41.7734 8.02344 41.7734C7.16406 41.7734 6.28906 41.6797 5.39844 41.4922C4.52344 41.3203 3.72656 41.0312 3.00781 40.625C2.30469 40.2031 1.72656 39.6562 1.27344 38.9844C0.820312 38.3125 0.59375 37.4766 0.59375 36.4766C0.59375 35.5391 0.8125 34.6953 1.25 33.9453C1.67188 33.1797 2.25781 32.5312 3.00781 32C3.77344 31.4688 4.67188 31.0625 5.70312 30.7812C6.73438 30.4844 7.84375 30.3359 9.03125 30.3359C9.92188 30.3359 10.8047 30.4141 11.6797 30.5703C12.5703 30.7266 13.4375 30.9375 14.2812 31.2031C15.125 31.4688 15.9453 31.7734 16.7422 32.1172C17.5391 32.4453 18.2891 32.7812 18.9922 33.125C19.0859 32.8438 19.1641 32.5625 19.2266 32.2812C19.3047 32 19.3672 31.6953 19.4141 31.3672C19.4766 31.0234 19.5156 30.6484 19.5312 30.2422C19.5625 29.8203 19.5781 29.3359 19.5781 28.7891C19.5781 28.2734 19.5625 27.7812 19.5312 27.3125C19.5156 26.8438 19.4922 26.3359 19.4609 25.7891C19.4453 25.2266 19.4219 24.6016 19.3906 23.9141C19.375 23.2109 19.3672 22.375 19.3672 21.4062C19.3672 19.1719 19.5859 17.1406 20.0234 15.3125C20.4609 13.4687 21.1094 11.8906 21.9688 10.5781C22.8281 9.26562 23.8984 8.25 25.1797 7.53125C26.4609 6.79688 27.9531 6.42969 29.6562 6.42969C30.6875 6.42969 31.6641 6.59375 32.5859 6.92188C33.5234 7.25 34.3438 7.71875 35.0469 8.32812C35.7656 8.9375 36.3281 9.66406 36.7344 10.5078C37.1562 11.3516 37.3672 12.2891 37.3672 13.3203C37.3672 13.8828 37.2891 14.4688 37.1328 15.0781C36.9766 15.6875 36.7578 16.25 36.4766 16.7656C36.2109 17.2656 35.8984 17.6797 35.5391 18.0078C35.1953 18.3359 34.8281 18.5 34.4375 18.5C34.2188 18.5 34.0234 18.4375 33.8516 18.3125C33.6797 18.1875 33.5938 17.9922 33.5938 17.7266C33.5938 17.5391 33.6328 17.3828 33.7109 17.2578C33.8047 17.1172 33.9141 16.9922 34.0391 16.8828C34.4922 16.4766 34.8594 15.9766 35.1406 15.3828C35.4375 14.7891 35.5859 14.1016 35.5859 13.3203C35.5859 12.5391 35.4219 11.8359 35.0938 11.2109C34.7812 10.5703 34.3516 10.0313 33.8047 9.59375C33.2734 9.14063 32.6484 8.79688 31.9297 8.5625C31.2266 8.3125 30.4844 8.1875 29.7031 8.1875C28.2344 8.1875 26.9609 8.50781 25.8828 9.14844C24.8047 9.78906 23.9141 10.6953 23.2109 11.8672C22.5078 13.0234 21.9844 14.4297 21.6406 16.0859C21.3125 17.7266 21.1484 19.5547 21.1484 21.5703C21.1484 22.5391 21.1562 23.3906 21.1719 24.125C21.2031 24.8594 21.2266 25.5312 21.2422 26.1406C21.2734 26.75 21.2969 27.3281 21.3125 27.875C21.3438 28.4062 21.3594 28.9531 21.3594 29.5156C21.3594 29.8438 21.3438 30.2031 21.3125 30.5938C21.2812 30.9688 21.2344 31.3594 21.1719 31.7656C21.1094 32.1562 21.0234 32.5469 20.9141 32.9375C20.8203 33.3125 20.7109 33.6562 20.5859 33.9688C21.7734 34.5938 22.9453 35.2578 24.1016 35.9609C25.2578 36.6641 26.4297 37.3125 27.6172 37.9062C28.8203 38.4844 30.0547 38.9688 31.3203 39.3594C32.6016 39.7344 33.9531 39.9219 35.375 39.9219C36.625 39.9219 37.7031 39.7344 38.6094 39.3594C39.5312 38.9844 40.2891 38.5703 40.8828 38.1172C41.4922 37.6484 41.9453 37.2266 42.2422 36.8516C42.5391 36.4609 42.6875 36.2578 42.6875 36.2422C42.8594 35.9609 43.1094 35.8203 43.4375 35.8203C43.7031 35.8203 43.9141 35.9141 44.0703 36.1016C44.2422 36.2891 44.3281 36.4922 44.3281 36.7109C44.3281 36.8828 44.2812 37.0391 44.1875 37.1797ZM18.3125 34.7188C17.6406 34.3906 16.9297 34.0703 16.1797 33.7578C15.4453 33.4297 14.6875 33.1406 13.9062 32.8906C13.125 32.6406 12.3203 32.4453 11.4922 32.3047C10.6797 32.1484 9.86719 32.0703 9.05469 32.0703C8.13281 32.0703 7.26562 32.1719 6.45312 32.375C5.64062 32.5625 4.92969 32.8438 4.32031 33.2188C3.71094 33.5938 3.22656 34.0469 2.86719 34.5781C2.52344 35.1094 2.35156 35.7109 2.35156 36.3828C2.35156 37.0078 2.50781 37.5547 2.82031 38.0234C3.13281 38.4766 3.54688 38.8594 4.0625 39.1719C4.59375 39.4688 5.20312 39.6953 5.89062 39.8516C6.57812 39.9922 7.29688 40.0625 8.04688 40.0625C8.95312 40.0625 9.89062 39.9922 10.8594 39.8516C11.8281 39.6953 12.7656 39.4219 13.6719 39.0312C14.5781 38.625 15.4297 38.0781 16.2266 37.3906C17.0234 36.6875 17.7188 35.7969 18.3125 34.7188ZM49.9766 22.6016C49.9766 23.1953 49.7656 23.7031 49.3438 24.125C48.9375 24.5312 48.4375 24.7344 47.8438 24.7344C47.25 24.7344 46.7422 24.5312 46.3203 24.125C45.9141 23.7031 45.7109 23.1953 45.7109 22.6016C45.7109 22.3047 45.7656 22.0312 45.875 21.7812C45.9844 21.5156 46.1328 21.2891 46.3203 21.1016C46.5234 20.8984 46.75 20.7422 47 20.6328C47.2656 20.5234 47.5469 20.4688 47.8438 20.4688C48.1406 20.4688 48.4141 20.5234 48.6641 20.6328C48.9297 20.7422 49.1562 20.8984 49.3438 21.1016C49.5469 21.2891 49.7031 21.5156 49.8125 21.7812C49.9219 22.0312 49.9766 22.3047 49.9766 22.6016ZM46.1797 36.3359C46.1797 34.0859 46.3203 31.8438 46.6016 29.6094C46.6328 29.3906 46.7266 29.2031 46.8828 29.0469C47.0547 28.875 47.2734 28.7891 47.5391 28.7891C47.7734 28.7891 47.9688 28.8828 48.125 29.0703C48.2812 29.2422 48.3594 29.4453 48.3594 29.6797C48.3594 29.7734 48.3359 30.0547 48.2891 30.5234C48.2578 30.9922 48.2109 31.5547 48.1484 32.2109C48.1016 32.8516 48.0547 33.5391 48.0078 34.2734C47.9766 34.9922 47.9609 35.6562 47.9609 36.2656C47.9609 37.0938 48.0391 37.7656 48.1953 38.2812C48.3672 38.7812 48.5781 39.1719 48.8281 39.4531C49.0938 39.7344 49.3672 39.9219 49.6484 40.0156C49.9453 40.1094 50.2266 40.1562 50.4922 40.1562C50.9297 40.1562 51.3828 40 51.8516 39.6875C52.3203 39.375 52.7969 38.9375 53.2812 38.375C53.7812 37.8125 54.2812 37.1406 54.7812 36.3594C55.2812 35.5625 55.7734 34.6797 56.2578 33.7109C56.3359 33.5547 56.4453 33.4375 56.5859 33.3594C56.7266 33.2656 56.8828 33.2188 57.0547 33.2188C57.3047 33.2188 57.5078 33.3125 57.6641 33.5C57.8359 33.6875 57.9219 33.8906 57.9219 34.1094C57.9219 34.2656 57.8906 34.3984 57.8281 34.5078C57.6406 34.8672 57.4062 35.3047 57.125 35.8203C56.8438 36.3359 56.5234 36.8672 56.1641 37.4141C55.8047 37.9609 55.4062 38.5078 54.9688 39.0547C54.5469 39.5859 54.0938 40.0703 53.6094 40.5078C53.125 40.9297 52.6172 41.2734 52.0859 41.5391C51.5547 41.8047 51.0156 41.9375 50.4688 41.9375C49.7656 41.9375 49.1484 41.7891 48.6172 41.4922C48.0859 41.1953 47.6328 40.7969 47.2578 40.2969C46.8984 39.7969 46.625 39.2109 46.4375 38.5391C46.2656 37.8516 46.1797 37.1172 46.1797 36.3359ZM48.6641 22.6016C48.6641 22.3828 48.5781 22.1953 48.4062 22.0391C48.25 21.8672 48.0625 21.7812 47.8438 21.7812C47.625 21.7812 47.4375 21.8672 47.2812 22.0391C47.125 22.1953 47.0469 22.3828 47.0469 22.6016C47.0469 22.8203 47.125 23.0078 47.2812 23.1641C47.4375 23.3203 47.625 23.3984 47.8438 23.3984C48.0625 23.3984 48.25 23.3203 48.4062 23.1641C48.5781 23.0078 48.6641 22.8203 48.6641 22.6016ZM69.5703 34.5078C69.3984 34.8672 69.1797 35.2969 68.9141 35.7969C68.6641 36.2812 68.375 36.7891 68.0469 37.3203C67.7188 37.8516 67.3516 38.3828 66.9453 38.9141C66.5391 39.4297 66.0938 39.8984 65.6094 40.3203C65.1406 40.7266 64.6328 41.0547 64.0859 41.3047C63.5547 41.5703 62.9844 41.7031 62.375 41.7031C61.4375 41.7031 60.6328 41.4141 59.9609 40.8359C59.2891 40.2578 58.7188 39.5 58.25 38.5625C57.7812 37.625 57.3984 36.5625 57.1016 35.375C56.8203 34.1719 56.6016 32.9531 56.4453 31.7188C56.2891 30.4688 56.1797 29.2578 56.1172 28.0859C56.0703 26.9141 56.0469 25.875 56.0469 24.9688C56.0469 23.6562 56.0859 22.2969 56.1641 20.8906C56.2578 19.4844 56.3984 18.1094 56.5859 16.7656C56.7734 15.4219 57.0078 14.1484 57.2891 12.9453C57.5859 11.7422 57.9297 10.6875 58.3203 9.78125C58.7266 8.875 59.1875 8.15625 59.7031 7.625C60.2188 7.09375 60.8047 6.82812 61.4609 6.82812C61.9766 6.82812 62.4375 6.95312 62.8438 7.20312C63.2656 7.4375 63.6172 7.82813 63.8984 8.375C64.1797 8.92187 64.3984 9.63281 64.5547 10.5078C64.7109 11.3828 64.7891 12.4531 64.7891 13.7188C64.7891 15.2813 64.625 16.8984 64.2969 18.5703C63.9688 20.2266 63.5234 21.8984 62.9609 23.5859C62.3984 25.2734 61.7344 26.9609 60.9688 28.6484C60.2031 30.3203 59.3828 31.9531 58.5078 33.5469C58.8984 35.5312 59.4219 37.0938 60.0781 38.2344C60.7344 39.3594 61.5234 39.9219 62.4453 39.9219C63.0703 39.9219 63.6719 39.6797 64.25 39.1953C64.8281 38.6953 65.3594 38.1094 65.8438 37.4375C66.3281 36.7656 66.75 36.0859 67.1094 35.3984C67.4844 34.6953 67.7734 34.1328 67.9766 33.7109C68.0547 33.5547 68.1641 33.4375 68.3047 33.3594C68.4453 33.2656 68.6016 33.2188 68.7734 33.2188C69.0391 33.2188 69.25 33.3125 69.4062 33.5C69.5781 33.6875 69.6641 33.8984 69.6641 34.1328C69.6641 34.2266 69.6328 34.3516 69.5703 34.5078ZM57.8281 25.0859C57.8281 26.0859 57.8516 27.0469 57.8984 27.9688C57.9453 28.8906 58.0078 29.7734 58.0859 30.6172C58.7422 29.3516 59.3672 28.0078 59.9609 26.5859C60.5547 25.1484 61.0781 23.7031 61.5312 22.25C61.9844 20.7812 62.3438 19.3281 62.6094 17.8906C62.8906 16.4375 63.0312 15.0547 63.0312 13.7422C63.0312 11.8984 62.8828 10.5781 62.5859 9.78125C62.2891 8.98438 61.8906 8.58594 61.3906 8.58594C61.0625 8.58594 60.7422 8.8125 60.4297 9.26562C60.1328 9.71875 59.8516 10.3359 59.5859 11.1172C59.3203 11.8984 59.0781 12.8203 58.8594 13.8828C58.6406 14.9453 58.4531 16.0859 58.2969 17.3047C58.1562 18.5234 58.0391 19.7969 57.9453 21.125C57.8672 22.4531 57.8281 23.7734 57.8281 25.0859ZM76.7188 41.3281C77.2656 40.7812 77.8203 40.2266 78.3828 39.6641C78.9453 39.0859 79.4922 38.4844 80.0234 37.8594C80.5547 37.2344 81.0469 36.5859 81.5 35.9141C81.9688 35.2266 82.3828 34.5 82.7422 33.7344C82.8203 33.5625 82.9297 33.4375 83.0703 33.3594C83.2109 33.2656 83.3672 33.2188 83.5391 33.2188C83.8047 33.2188 84.0156 33.3125 84.1719 33.5C84.3438 33.6875 84.4297 33.8984 84.4297 34.1328C84.4297 34.2578 84.4062 34.375 84.3594 34.4844C83.875 35.5 83.3203 36.4297 82.6953 37.2734C82.0703 38.1172 81.4141 38.9219 80.7266 39.6875C80.0391 40.4375 79.3438 41.1641 78.6406 41.8672C77.9375 42.5859 77.2656 43.3047 76.625 44.0234C76.5625 45.1016 76.5625 46.1797 76.625 47.2578C76.6875 48.3516 76.7188 49.5078 76.7188 50.7266C76.7188 51.7266 76.6875 52.7266 76.625 53.7266C76.5625 54.7266 76.4609 55.6797 76.3203 56.5859C76.1797 57.5078 75.9844 58.3672 75.7344 59.1641C75.5 59.9609 75.1953 60.6484 74.8203 61.2266C74.4453 61.8203 74.0078 62.2812 73.5078 62.6094C73.0078 62.9531 72.4219 63.125 71.75 63.125C70.6406 63.125 69.7891 62.7422 69.1953 61.9766C68.6016 61.2109 68.3047 60.1406 68.3047 58.7656C68.3047 58.0156 68.3828 57.2109 68.5391 56.3516C68.7109 55.4922 68.9453 54.6016 69.2422 53.6797C69.5391 52.7734 69.8906 51.8516 70.2969 50.9141C70.7188 49.9766 71.1719 49.0625 71.6562 48.1719C72.1406 47.2812 72.6562 46.4297 73.2031 45.6172C73.75 44.8203 74.3047 44.0938 74.8672 43.4375C74.8984 42.6875 74.9297 41.9062 74.9609 41.0938C75.0078 40.2969 75.0547 39.5547 75.1016 38.8672C74.6953 39.5859 74.1875 40.1641 73.5781 40.6016C72.9844 41.0391 72.3281 41.2578 71.6094 41.2578C70.4219 41.2578 69.4922 40.8594 68.8203 40.0625C68.1484 39.2656 67.8125 38.1719 67.8125 36.7812C67.8125 35.7656 67.9062 34.8438 68.0938 34.0156C68.2969 33.1719 68.5078 32.4531 68.7266 31.8594C68.9609 31.25 69.1719 30.7891 69.3594 30.4766C69.5469 30.1484 69.6406 29.9922 69.6406 30.0078C69.8125 29.7422 70.0547 29.6094 70.3672 29.6094C70.6328 29.6094 70.8438 29.7031 71 29.8906C71.1719 30.0625 71.2578 30.2656 71.2578 30.5C71.2578 30.6719 71.2109 30.8281 71.1172 30.9688C71.1328 30.9531 71.0547 31.0859 70.8828 31.3672C70.7266 31.6328 70.5469 32.0234 70.3438 32.5391C70.1562 33.0547 69.9766 33.6719 69.8047 34.3906C69.6484 35.1094 69.5703 35.8984 69.5703 36.7578C69.5703 37.6172 69.7266 38.2891 70.0391 38.7734C70.3516 39.2578 70.8594 39.5 71.5625 39.5C72.4531 39.5 73.2578 38.8438 73.9766 37.5312C74.6953 36.2031 75.3047 34.2812 75.8047 31.7656C75.8359 31.5625 75.9297 31.3984 76.0859 31.2734C76.2422 31.1328 76.4297 31.0625 76.6484 31.0625C76.8984 31.0625 77.1094 31.1484 77.2812 31.3203C77.4531 31.4922 77.5391 31.7031 77.5391 31.9531C77.5391 32 77.5078 32.2812 77.4453 32.7969C77.3828 33.2969 77.3047 33.9688 77.2109 34.8125C77.1328 35.6562 77.0469 36.6406 76.9531 37.7656C76.8594 38.875 76.7812 40.0625 76.7188 41.3281ZM74.8438 46.2969C74.1406 47.3125 73.4922 48.3828 72.8984 49.5078C72.3203 50.6328 71.8203 51.75 71.3984 52.8594C70.9766 53.9688 70.6484 55.0312 70.4141 56.0469C70.1797 57.0625 70.0625 57.9688 70.0625 58.7656C70.0625 59.5781 70.1953 60.2109 70.4609 60.6641C70.7266 61.1328 71.1484 61.3672 71.7266 61.3672C72.2422 61.3672 72.6953 61.1094 73.0859 60.5938C73.4922 60.0938 73.8281 59.375 74.0938 58.4375C74.375 57.5 74.5859 56.3594 74.7266 55.0156C74.8672 53.6875 74.9375 52.1953 74.9375 50.5391C74.9375 49.8672 74.9219 49.1875 74.8906 48.5C74.875 47.8125 74.8594 47.0781 74.8438 46.2969ZM134.188 39.7578C136.906 37.6328 139.352 35.375 141.523 32.9844C143.711 30.5938 145.562 28.1797 147.078 25.7422C148.609 23.2891 149.781 20.8516 150.594 18.4297C151.406 15.9922 151.812 13.6719 151.812 11.4688C151.812 10.1875 151.672 8.99219 151.391 7.88281C151.125 6.77344 150.734 5.82031 150.219 5.02344C149.703 4.21094 149.078 3.57812 148.344 3.125C147.625 2.65625 146.812 2.42188 145.906 2.42188H145.461C145.195 2.42188 144.969 2.34375 144.781 2.1875C144.609 2.03125 144.523 1.82031 144.523 1.55469C144.523 1.17969 144.656 0.9375 144.922 0.828125C145.203 0.703125 145.516 0.640625 145.859 0.640625C147 0.640625 148.047 0.90625 149 1.4375C149.953 1.96875 150.766 2.71094 151.438 3.66406C152.109 4.61719 152.633 5.74219 153.008 7.03906C153.383 8.33594 153.57 9.74219 153.57 11.2578C153.57 13.7266 153.141 16.2656 152.281 18.875C151.438 21.4688 150.18 24.0859 148.508 26.7266C146.852 29.3516 144.789 31.9688 142.32 34.5781C139.867 37.1875 137.039 39.7344 133.836 42.2188C133.758 42.2812 133.656 42.3516 133.531 42.4297C133.406 42.5078 133.258 42.5469 133.086 42.5469C132.789 42.5469 132.57 42.4453 132.43 42.2422C132.289 42.0547 132.219 41.8281 132.219 41.5625C132.219 41.4531 132.227 41.2266 132.242 40.8828C132.273 40.5391 132.305 40.1172 132.336 39.6172C132.367 39.1172 132.406 38.5703 132.453 37.9766C132.5 37.3672 132.539 36.7578 132.57 36.1484C132.602 35.5234 132.625 34.9219 132.641 34.3438C132.672 33.7656 132.688 33.25 132.688 32.7969C132.703 29.375 132.445 26.2188 131.914 23.3281C131.383 20.4219 130.539 17.9062 129.383 15.7812C128.227 13.6562 126.734 12 124.906 10.8125C123.094 9.60938 120.898 9.00781 118.32 9.00781C116.398 9.00781 114.703 9.27344 113.234 9.80469C111.781 10.3203 110.562 11.0078 109.578 11.8672C108.594 12.7266 107.852 13.7031 107.352 14.7969C106.852 15.875 106.602 16.9766 106.602 18.1016C106.602 19.1016 106.766 20 107.094 20.7969C107.438 21.5781 107.898 22.25 108.477 22.8125C109.07 23.3594 109.766 23.7812 110.562 24.0781C111.359 24.3594 112.219 24.5 113.141 24.5C113.922 24.5 114.633 24.4141 115.273 24.2422C115.914 24.0703 116.461 23.8828 116.914 23.6797C117.367 23.4609 117.719 23.2656 117.969 23.0938C118.234 22.9062 118.383 22.7969 118.414 22.7656C118.492 22.6875 118.578 22.6406 118.672 22.625C118.781 22.5938 118.883 22.5781 118.977 22.5781C119.211 22.5781 119.414 22.6562 119.586 22.8125C119.758 22.9531 119.844 23.1484 119.844 23.3984C119.844 23.6953 119.742 23.9219 119.539 24.0781C119.508 24.1094 119.336 24.2422 119.023 24.4766C118.711 24.6953 118.273 24.9375 117.711 25.2031C117.164 25.4531 116.5 25.6875 115.719 25.9062C114.938 26.125 114.07 26.2344 113.117 26.2344C111.945 26.2344 110.852 26.0391 109.836 25.6484C108.82 25.2578 107.945 24.7031 107.211 23.9844C106.477 23.2656 105.898 22.4141 105.477 21.4297C105.055 20.4297 104.844 19.3281 104.844 18.125C104.844 16.7812 105.133 15.4609 105.711 14.1641C106.289 12.8672 107.141 11.7109 108.266 10.6953C109.406 9.67969 110.805 8.86719 112.461 8.25781C114.133 7.63281 116.062 7.32031 118.25 7.32031C121.078 7.32031 123.508 7.9375 125.539 9.17188C127.586 10.3906 129.266 12.1172 130.578 14.3516C131.906 16.5859 132.883 19.2812 133.508 22.4375C134.148 25.5781 134.469 29.0703 134.469 32.9141C134.469 33.9922 134.445 35.1094 134.398 36.2656C134.352 37.4062 134.281 38.5703 134.188 39.7578ZM169.32 34.4609C169.258 34.5859 169.125 34.8516 168.922 35.2578C168.734 35.6484 168.484 36.1016 168.172 36.6172C167.875 37.1328 167.523 37.6719 167.117 38.2344C166.711 38.7969 166.258 39.3125 165.758 39.7812C165.258 40.25 164.719 40.6406 164.141 40.9531C163.562 41.25 162.953 41.3984 162.312 41.3984C161.406 41.3984 160.641 41.1094 160.016 40.5312C159.406 39.9531 158.961 39.2266 158.68 38.3516C158.148 39.2422 157.516 39.9531 156.781 40.4844C156.047 41 155.312 41.2578 154.578 41.2578C154 41.2578 153.477 41.1562 153.008 40.9531C152.539 40.7344 152.141 40.4375 151.812 40.0625C151.484 39.6719 151.227 39.2188 151.039 38.7031C150.867 38.1875 150.781 37.625 150.781 37.0156C150.781 35.7969 150.984 34.7266 151.391 33.8047C151.812 32.8672 152.344 32.0859 152.984 31.4609C153.625 30.8359 154.328 30.3672 155.094 30.0547C155.875 29.7422 156.625 29.5859 157.344 29.5859C157.828 29.5859 158.273 29.6562 158.68 29.7969C159.086 29.9219 159.43 30.0625 159.711 30.2188C160.008 30.375 160.234 30.5234 160.391 30.6641C160.547 30.7891 160.633 30.8594 160.648 30.875C160.82 31.0781 160.906 31.2891 160.906 31.5078C160.906 31.7422 160.82 31.9531 160.648 32.1406C160.477 32.3125 160.273 32.3984 160.039 32.3984C159.789 32.3984 159.578 32.3125 159.406 32.1406C159.375 32.1094 159.305 32.0547 159.195 31.9766C159.086 31.8828 158.938 31.7891 158.75 31.6953C158.562 31.6016 158.336 31.5234 158.07 31.4609C157.82 31.3828 157.531 31.3438 157.203 31.3438C156.719 31.3438 156.203 31.4531 155.656 31.6719C155.109 31.8906 154.609 32.2344 154.156 32.7031C153.703 33.1562 153.32 33.7344 153.008 34.4375C152.711 35.125 152.562 35.9453 152.562 36.8984C152.562 37.1953 152.594 37.5 152.656 37.8125C152.719 38.1094 152.828 38.3828 152.984 38.6328C153.141 38.8828 153.352 39.0859 153.617 39.2422C153.883 39.3984 154.211 39.4766 154.602 39.4766C154.883 39.4766 155.203 39.3828 155.562 39.1953C155.938 39.0078 156.289 38.7188 156.617 38.3281C156.961 37.9375 157.266 37.4453 157.531 36.8516C157.812 36.2578 158.008 35.5547 158.117 34.7422C158.148 34.5234 158.25 34.3438 158.422 34.2031C158.594 34.0469 158.797 33.9688 159.031 33.9688C159.25 33.9688 159.438 34.0547 159.594 34.2266C159.766 34.3984 159.859 34.5938 159.875 34.8125C159.891 35.1094 159.922 35.5312 159.969 36.0781C160.016 36.6094 160.117 37.1406 160.273 37.6719C160.445 38.2031 160.695 38.6641 161.023 39.0547C161.352 39.4453 161.805 39.6406 162.383 39.6406C162.758 39.6406 163.125 39.5391 163.484 39.3359C163.859 39.1328 164.219 38.8672 164.562 38.5391C164.922 38.1953 165.258 37.8125 165.57 37.3906C165.898 36.9531 166.195 36.5156 166.461 36.0781C166.727 35.6406 166.961 35.2188 167.164 34.8125C167.367 34.4062 167.539 34.0547 167.68 33.7578C167.758 33.5859 167.867 33.4531 168.008 33.3594C168.164 33.2656 168.328 33.2188 168.5 33.2188C168.766 33.2188 168.977 33.3203 169.133 33.5234C169.305 33.7109 169.391 33.9141 169.391 34.1328C169.391 34.2422 169.367 34.3516 169.32 34.4609ZM170.164 31.3672C170.102 31.7891 170.023 32.1875 169.93 32.5625C169.836 32.9219 169.742 33.2422 169.648 33.5234C169.57 33.7891 169.5 34.0078 169.438 34.1797C169.375 34.3516 169.336 34.4453 169.32 34.4609C169.164 34.8203 168.891 35 168.5 35C168.281 35 168.078 34.9219 167.891 34.7656C167.703 34.5938 167.609 34.3828 167.609 34.1328C167.609 34.0391 167.625 33.9688 167.656 33.9219C167.688 33.875 167.734 33.7812 167.797 33.6406C167.859 33.5 167.938 33.2656 168.031 32.9375C168.125 32.6094 168.242 32.1016 168.383 31.4141C168.117 31.4141 167.844 31.4062 167.562 31.3906C167.281 31.375 167.023 31.3203 166.789 31.2266C166.539 31.1328 166.336 30.9844 166.18 30.7812C166.023 30.5781 165.945 30.2969 165.945 29.9375C165.945 29.6719 166.023 29.3125 166.18 28.8594C166.32 28.4062 166.516 27.9609 166.766 27.5234C167.016 27.0859 167.297 26.7109 167.609 26.3984C167.922 26.0703 168.234 25.9062 168.547 25.9062C168.906 25.9062 169.195 26.0391 169.414 26.3047C169.648 26.5703 169.828 26.8984 169.953 27.2891C170.078 27.6641 170.164 28.0625 170.211 28.4844C170.273 28.9062 170.305 29.2734 170.305 29.5859C170.57 29.5859 170.828 29.5859 171.078 29.5859C171.344 29.5703 171.594 29.5625 171.828 29.5625C172.719 29.5625 173.398 29.7578 173.867 30.1484C174.336 30.5391 174.57 31.1797 174.57 32.0703C174.57 32.4297 174.547 32.8047 174.5 33.1953C174.453 33.5859 174.398 33.9922 174.336 34.4141C174.273 34.8203 174.219 35.2266 174.172 35.6328C174.125 36.0391 174.102 36.4375 174.102 36.8281C174.102 37.3906 174.18 37.8594 174.336 38.2344C174.492 38.5938 174.688 38.8828 174.922 39.1016C175.156 39.3203 175.406 39.4766 175.672 39.5703C175.938 39.6484 176.18 39.6875 176.398 39.6875C177.07 39.6875 177.703 39.4688 178.297 39.0312C178.891 38.5938 179.438 38.0703 179.938 37.4609C180.438 36.8359 180.883 36.1797 181.273 35.4922C181.68 34.8047 182.016 34.2031 182.281 33.6875C182.359 33.5469 182.469 33.4375 182.609 33.3594C182.75 33.2812 182.898 33.2422 183.055 33.2422C183.336 33.2422 183.555 33.3359 183.711 33.5234C183.867 33.6953 183.945 33.8906 183.945 34.1094C183.945 34.2656 183.914 34.4062 183.852 34.5312C183.492 35.1719 183.07 35.8984 182.586 36.7109C182.117 37.5078 181.578 38.2578 180.969 38.9609C180.359 39.6641 179.672 40.2578 178.906 40.7422C178.156 41.2266 177.328 41.4688 176.422 41.4688C175.859 41.4688 175.328 41.3594 174.828 41.1406C174.328 40.9375 173.891 40.6406 173.516 40.25C173.156 39.8438 172.867 39.3516 172.648 38.7734C172.43 38.1797 172.32 37.5156 172.32 36.7812C172.32 36 172.398 35.2266 172.555 34.4609C172.711 33.6797 172.789 32.9375 172.789 32.2344C172.789 31.9375 172.719 31.7188 172.578 31.5781C172.453 31.4219 172.164 31.3438 171.711 31.3438C171.492 31.3438 171.25 31.3438 170.984 31.3438C170.734 31.3438 170.461 31.3516 170.164 31.3672ZM168.594 29.6328C168.594 29.5234 168.586 29.3828 168.57 29.2109C168.57 29.0234 168.555 28.8438 168.523 28.6719C168.508 28.5 168.477 28.3516 168.43 28.2266C168.398 28.1016 168.359 28.0391 168.312 28.0391C168.266 28.0391 168.203 28.1016 168.125 28.2266C168.062 28.3359 167.992 28.4766 167.914 28.6484C167.836 28.8047 167.766 28.9766 167.703 29.1641C167.641 29.3516 167.594 29.5078 167.562 29.6328H168.594ZM190.766 43.2969C193.703 39.4688 195.742 36.2891 196.883 33.7578C196.961 33.5859 197.062 33.4609 197.188 33.3828C197.328 33.2891 197.484 33.2422 197.656 33.2422C197.922 33.2422 198.141 33.3359 198.312 33.5234C198.484 33.6953 198.57 33.8984 198.57 34.1328C198.57 34.2422 198.547 34.3516 198.5 34.4609C197.812 36.0234 196.836 37.7656 195.57 39.6875C194.305 41.6094 192.703 43.7812 190.766 46.2031C190.766 47.1875 190.773 48.1719 190.789 49.1562C190.805 50.1406 190.812 51.2188 190.812 52.3906C190.812 53.5625 190.781 54.7188 190.719 55.8594C190.672 57.0156 190.578 58.1094 190.438 59.1406C190.297 60.1875 190.102 61.1484 189.852 62.0234C189.617 62.9141 189.305 63.6797 188.914 64.3203C188.539 64.9766 188.078 65.4844 187.531 65.8438C187 66.2188 186.367 66.4062 185.633 66.4062C184.586 66.4062 183.781 66.0078 183.219 65.2109C182.656 64.4141 182.375 63.2812 182.375 61.8125C182.375 61.0312 182.445 60.1797 182.586 59.2578C182.742 58.3516 182.961 57.4141 183.242 56.4453C183.523 55.4766 183.859 54.4922 184.25 53.4922C184.656 52.5078 185.102 51.5469 185.586 50.6094C186.07 49.6719 186.594 48.7734 187.156 47.9141C187.734 47.0547 188.344 46.2734 188.984 45.5703C189 44.4766 189.008 43.3906 189.008 42.3125C189.023 41.2344 189.047 40.2422 189.078 39.3359C188.609 39.9297 188.047 40.3984 187.391 40.7422C186.75 41.0859 186.109 41.2578 185.469 41.2578C184.922 41.2578 184.422 41.1562 183.969 40.9531C183.531 40.7344 183.156 40.4375 182.844 40.0625C182.531 39.6719 182.289 39.2188 182.117 38.7031C181.945 38.1875 181.859 37.625 181.859 37.0156C181.859 35.7969 182.062 34.7266 182.469 33.8047C182.891 32.8672 183.422 32.0859 184.062 31.4609C184.703 30.8359 185.406 30.3672 186.172 30.0547C186.953 29.7422 187.703 29.5859 188.422 29.5859C188.906 29.5859 189.352 29.6484 189.758 29.7734C190.164 29.8984 190.508 30.0391 190.789 30.1953C191.086 30.3516 191.312 30.5 191.469 30.6406C191.625 30.7812 191.711 30.8594 191.727 30.875C191.898 31.0625 191.984 31.2734 191.984 31.5078C191.984 31.7422 191.898 31.9531 191.727 32.1406C191.555 32.3125 191.352 32.3984 191.117 32.3984C190.898 32.3984 190.688 32.3125 190.484 32.1406C190.422 32.0938 190.336 32.0312 190.227 31.9531C190.133 31.8594 190 31.7656 189.828 31.6719C189.672 31.5781 189.477 31.5 189.242 31.4375C189.023 31.375 188.758 31.3438 188.445 31.3438C187.977 31.3438 187.461 31.4531 186.898 31.6719C186.336 31.875 185.812 32.2031 185.328 32.6562C184.844 33.1094 184.438 33.6953 184.109 34.4141C183.781 35.1172 183.617 35.9688 183.617 36.9688C183.617 37.7188 183.781 38.3281 184.109 38.7969C184.438 39.25 184.945 39.4766 185.633 39.4766C185.961 39.4766 186.305 39.3828 186.664 39.1953C187.039 39.0078 187.398 38.7188 187.742 38.3281C188.086 37.9375 188.383 37.4453 188.633 36.8516C188.898 36.2578 189.086 35.5547 189.195 34.7422C189.227 34.5234 189.328 34.3438 189.5 34.2031C189.672 34.0469 189.875 33.9688 190.109 33.9688C190.375 33.9688 190.578 34.0625 190.719 34.25C190.875 34.4375 190.953 34.6484 190.953 34.8828C190.953 34.8984 190.945 35.1406 190.93 35.6094C190.914 36.0625 190.898 36.6719 190.883 37.4375C190.867 38.2031 190.844 39.0938 190.812 40.1094C190.797 41.1094 190.781 42.1719 190.766 43.2969ZM188.984 48.4297C188.25 49.4453 187.586 50.5469 186.992 51.7344C186.398 52.9375 185.891 54.1484 185.469 55.3672C185.047 56.5859 184.719 57.7656 184.484 58.9062C184.266 60.0625 184.156 61.0938 184.156 62C184.156 62.5781 184.203 63.0391 184.297 63.3828C184.406 63.7266 184.531 63.9922 184.672 64.1797C184.828 64.3672 184.992 64.4922 185.164 64.5547C185.352 64.6172 185.523 64.6484 185.68 64.6484C186.164 64.6484 186.586 64.4531 186.945 64.0625C187.305 63.6719 187.609 63.1484 187.859 62.4922C188.109 61.8516 188.312 61.1094 188.469 60.2656C188.625 59.4219 188.742 58.5469 188.82 57.6406C188.898 56.75 188.953 55.8594 188.984 54.9688C189.016 54.0781 189.031 53.2578 189.031 52.5078C189.031 51.8359 189.031 51.1641 189.031 50.4922C189.031 49.8203 189.016 49.1328 188.984 48.4297ZM215.023 34.4609C214.961 34.5859 214.828 34.8516 214.625 35.2578C214.438 35.6484 214.188 36.1016 213.875 36.6172C213.578 37.1328 213.227 37.6719 212.82 38.2344C212.414 38.7969 211.961 39.3125 211.461 39.7812C210.961 40.25 210.422 40.6406 209.844 40.9531C209.266 41.25 208.656 41.3984 208.016 41.3984C207.109 41.3984 206.344 41.1094 205.719 40.5312C205.109 39.9531 204.664 39.2266 204.383 38.3516C203.852 39.2422 203.219 39.9531 202.484 40.4844C201.75 41 201.016 41.2578 200.281 41.2578C199.703 41.2578 199.18 41.1562 198.711 40.9531C198.242 40.7344 197.844 40.4375 197.516 40.0625C197.188 39.6719 196.93 39.2188 196.742 38.7031C196.57 38.1875 196.484 37.625 196.484 37.0156C196.484 35.7969 196.688 34.7266 197.094 33.8047C197.516 32.8672 198.047 32.0859 198.688 31.4609C199.328 30.8359 200.031 30.3672 200.797 30.0547C201.578 29.7422 202.328 29.5859 203.047 29.5859C203.531 29.5859 203.977 29.6562 204.383 29.7969C204.789 29.9219 205.133 30.0625 205.414 30.2188C205.711 30.375 205.938 30.5234 206.094 30.6641C206.25 30.7891 206.336 30.8594 206.352 30.875C206.523 31.0781 206.609 31.2891 206.609 31.5078C206.609 31.7422 206.523 31.9531 206.352 32.1406C206.18 32.3125 205.977 32.3984 205.742 32.3984C205.492 32.3984 205.281 32.3125 205.109 32.1406C205.078 32.1094 205.008 32.0547 204.898 31.9766C204.789 31.8828 204.641 31.7891 204.453 31.6953C204.266 31.6016 204.039 31.5234 203.773 31.4609C203.523 31.3828 203.234 31.3438 202.906 31.3438C202.422 31.3438 201.906 31.4531 201.359 31.6719C200.812 31.8906 200.312 32.2344 199.859 32.7031C199.406 33.1562 199.023 33.7344 198.711 34.4375C198.414 35.125 198.266 35.9453 198.266 36.8984C198.266 37.1953 198.297 37.5 198.359 37.8125C198.422 38.1094 198.531 38.3828 198.688 38.6328C198.844 38.8828 199.055 39.0859 199.32 39.2422C199.586 39.3984 199.914 39.4766 200.305 39.4766C200.586 39.4766 200.906 39.3828 201.266 39.1953C201.641 39.0078 201.992 38.7188 202.32 38.3281C202.664 37.9375 202.969 37.4453 203.234 36.8516C203.516 36.2578 203.711 35.5547 203.82 34.7422C203.852 34.5234 203.953 34.3438 204.125 34.2031C204.297 34.0469 204.5 33.9688 204.734 33.9688C204.953 33.9688 205.141 34.0547 205.297 34.2266C205.469 34.3984 205.562 34.5938 205.578 34.8125C205.594 35.1094 205.625 35.5312 205.672 36.0781C205.719 36.6094 205.82 37.1406 205.977 37.6719C206.148 38.2031 206.398 38.6641 206.727 39.0547C207.055 39.4453 207.508 39.6406 208.086 39.6406C208.461 39.6406 208.828 39.5391 209.188 39.3359C209.562 39.1328 209.922 38.8672 210.266 38.5391C210.625 38.1953 210.961 37.8125 211.273 37.3906C211.602 36.9531 211.898 36.5156 212.164 36.0781C212.43 35.6406 212.664 35.2188 212.867 34.8125C213.07 34.4062 213.242 34.0547 213.383 33.7578C213.461 33.5859 213.57 33.4531 213.711 33.3594C213.867 33.2656 214.031 33.2188 214.203 33.2188C214.469 33.2188 214.68 33.3203 214.836 33.5234C215.008 33.7109 215.094 33.9141 215.094 34.1328C215.094 34.2422 215.07 34.3516 215.023 34.4609ZM216.008 32.3281C215.914 32.5781 215.797 32.8594 215.656 33.1719C215.531 33.4844 215.383 33.8125 215.211 34.1562C215.07 34.4219 214.922 34.6328 214.766 34.7891C214.625 34.9297 214.438 35 214.203 35C213.938 35 213.727 34.9219 213.57 34.7656C213.414 34.5938 213.336 34.3984 213.336 34.1797C213.336 34.1016 213.344 34.0391 213.359 33.9922C213.375 33.9297 213.414 33.8359 213.477 33.7109C213.883 32.9297 214.18 32.25 214.367 31.6719C214.57 31.0781 214.734 30.4609 214.859 29.8203C214.75 29.4609 214.672 29.1562 214.625 28.9062C214.578 28.6562 214.555 28.3984 214.555 28.1328C214.555 27.6172 214.664 27.2031 214.883 26.8906C215.102 26.5625 215.406 26.3984 215.797 26.3984C216.156 26.3984 216.438 26.5547 216.641 26.8672C216.859 27.1797 216.969 27.5625 216.969 28.0156C216.969 28.2656 216.945 28.5156 216.898 28.7656C216.852 29.0156 216.789 29.3281 216.711 29.7031C217.07 30.5938 217.43 31.3828 217.789 32.0703C218.148 32.7578 218.469 33.3906 218.75 33.9688C219.031 34.5312 219.258 35.0625 219.43 35.5625C219.617 36.0625 219.711 36.5625 219.711 37.0625C219.711 37.7188 219.578 38.3438 219.312 38.9375C219.047 39.5312 218.609 40.0312 218 40.4375C218.078 40.4531 218.156 40.4609 218.234 40.4609C218.312 40.4609 218.391 40.4609 218.469 40.4609C219.359 40.4609 220.18 40.2578 220.93 39.8516C221.68 39.4453 222.352 38.9219 222.945 38.2812C223.555 37.625 224.094 36.9062 224.562 36.125C225.031 35.3281 225.438 34.5391 225.781 33.7578C225.938 33.3984 226.156 33.2188 226.438 33.2188C226.703 33.2188 226.906 33.3125 227.047 33.5C227.203 33.6875 227.281 33.8906 227.281 34.1094C227.281 34.2344 227.258 34.3516 227.211 34.4609C227.039 34.8828 226.812 35.3672 226.531 35.9141C226.266 36.4453 225.938 37 225.547 37.5781C225.172 38.1406 224.734 38.6953 224.234 39.2422C223.734 39.7891 223.172 40.2812 222.547 40.7188C221.938 41.1406 221.266 41.4766 220.531 41.7266C219.797 41.9922 218.992 42.125 218.117 42.125C217.07 42.125 216.094 41.9375 215.188 41.5625C214.297 41.2031 213.57 40.6016 213.008 39.7578C212.914 39.6172 212.867 39.4688 212.867 39.3125C212.867 39.0781 212.953 38.875 213.125 38.7031C213.312 38.5156 213.523 38.4219 213.758 38.4219C214.008 38.4219 214.219 38.5078 214.391 38.6797C214.406 38.7109 214.461 38.7656 214.555 38.8438C214.648 38.9062 214.758 38.9844 214.883 39.0781C215.023 39.1562 215.18 39.2266 215.352 39.2891C215.539 39.3516 215.727 39.3828 215.914 39.3828C216.289 39.3828 216.602 39.3047 216.852 39.1484C217.117 38.9922 217.328 38.8047 217.484 38.5859C217.641 38.3516 217.75 38.1094 217.812 37.8594C217.891 37.5938 217.93 37.3672 217.93 37.1797C217.93 36.7891 217.867 36.3984 217.742 36.0078C217.617 35.6172 217.453 35.2266 217.25 34.8359C217.062 34.4453 216.852 34.0469 216.617 33.6406C216.398 33.2188 216.195 32.7812 216.008 32.3281Z" fill="black"/>
<path fill-rule="evenodd" clip-rule="evenodd" d="M100.01 29.6161C104.651 31.6788 108.289 29.5472 109.699 28.659C110.953 27.8695 112.134 28.2556 112.134 28.2556C112.134 28.2556 111.165 27.237 110.608 26.8942C110.05 26.5513 107.506 24.8276 104.754 24.402C102.002 23.9764 99.5097 26.2984 97.943 26.4436C96.3763 26.5887 94.6784 25.1218 94.6784 25.1218C94.6784 25.1218 96.2025 26.0066 97.6684 25.641C99.1344 25.2754 100.525 23.0151 103.875 23.3332C107.225 23.6514 112.09 26.4959 113.214 28.709C113.766 29.7941 112.721 28.4638 111.343 28.7725C110.065 29.059 107.821 30.9276 105.39 31.3415C102.618 31.8135 99.9006 29.6017 100.01 29.6161Z" fill="#E10BCC" fill-opacity="0.64"/>
<path fill-rule="evenodd" clip-rule="evenodd" d="M99.3408 26.7792C100.839 28.1565 101.618 28.6218 103.255 28.362C104.926 28.0969 105.123 26.9581 107.699 27.1079C105.014 26.2025 104.366 27.6554 102.611 27.6083C100.897 27.5623 99.4333 26.7328 99.3408 26.7792Z" fill="#E10BCC" fill-opacity="0.64"/>
<path fill-rule="evenodd" clip-rule="evenodd" d="M99.4601 30.9075C99.0786 32.7154 99.1099 33.5521 100.309 34.7998C101.533 36.0728 102.691 35.7659 104.067 37.9595C103.319 35.3638 101.608 35.4272 100.621 33.956C99.6569 32.5184 99.557 30.9648 99.4601 30.9075Z" fill="#E10BCC" fill-opacity="0.64"/>
<path fill-rule="evenodd" clip-rule="evenodd" d="M95.806 32.854C93.9268 33.2847 93.1791 33.656 92.7409 35.1636C92.2939 36.7016 93.255 37.5335 92.0544 39.5773C93.9918 37.887 92.9293 36.4975 93.6967 35.0734C94.4467 33.6819 95.8104 32.9578 95.806 32.854Z" fill="#E10BCC" fill-opacity="0.64"/>
<path fill-rule="evenodd" clip-rule="evenodd" d="M91.5591 30.5338C90.0614 29.1565 89.2824 28.6912 87.6449 28.951C85.9744 29.2161 85.777 30.3549 83.2009 30.2051C85.886 31.1104 86.5343 29.6576 88.2887 29.7047C90.003 29.7507 91.4666 30.5802 91.5591 30.5338Z" fill="#E10BCC" fill-opacity="0.64"/>
<path fill-rule="evenodd" clip-rule="evenodd" d="M91.2556 26.609C91.6372 24.8011 91.6059 23.9644 90.4065 22.7167C89.183 21.4438 88.0245 21.7506 86.6491 19.557C87.3967 22.1527 89.1075 22.0893 90.0945 23.5605C91.0589 24.9981 91.1588 26.5517 91.2556 26.609Z" fill="#E10BCC" fill-opacity="0.64"/>
<path fill-rule="evenodd" clip-rule="evenodd" d="M94.7448 24.9307C96.624 24.5 97.3717 24.1286 97.8099 22.6211C98.2569 21.0831 97.2958 20.2511 98.4965 18.2073C96.559 19.8976 97.6215 21.2871 96.8541 22.7112C96.1042 24.1028 94.7405 24.8269 94.7448 24.9307Z" fill="#E10BCC" fill-opacity="0.64"/>
<path fill-rule="evenodd" clip-rule="evenodd" d="M97.4245 32.9392C98.2608 37.6309 102.349 39.7619 103.99 40.5621C105.449 41.2733 105.789 42.4102 105.789 42.4102C105.789 42.4102 106.152 41.1879 106.139 40.5851C106.126 39.9824 106.21 37.1652 104.984 34.7122C103.757 32.2592 100.168 31.1556 99.1155 29.9191C98.0627 28.6826 98.4088 26.6721 98.4088 26.6721C98.4088 26.6721 98.4937 28.2985 99.6891 29.3606C100.885 30.4227 103.77 30.6401 105.446 33.5435C107.122 36.447 107.374 41.6468 106.008 43.4913C105.338 44.3957 105.943 42.9822 104.851 41.9693C103.838 41.0294 100.81 39.9444 99.0037 38.1035C96.9438 36.0043 97.3735 32.8428 97.4245 32.9392Z" fill="#E10BCC" fill-opacity="0.64"/>
<path fill-rule="evenodd" clip-rule="evenodd" d="M92.9619 32.3014C89.1575 34.9305 89.6068 39.1931 89.8378 40.8814C90.0431 42.3821 89.2019 43.1329 89.2019 43.1329C89.2019 43.1329 90.5345 42.9291 91.0785 42.6693C91.6225 42.4094 94.2511 41.3159 95.777 39.2885C97.3028 37.2611 96.2059 33.8356 96.7198 32.4539C97.2337 31.0722 99.2777 30.5286 99.2777 30.5286C99.2777 30.5286 97.8384 31.2703 97.5679 32.698C97.2975 34.1256 98.7928 36.6034 97.1184 39.1887C95.444 41.774 90.8314 44.1293 88.3408 43.7607C87.1197 43.58 88.7689 43.4967 89.0551 42.1751C89.3207 40.9487 88.5362 37.9951 89.161 35.7403C89.8735 33.1691 93.0202 32.2195 92.9619 32.3014Z" fill="#E10BCC" fill-opacity="0.64"/>
<path fill-rule="evenodd" clip-rule="evenodd" d="M91.16 28.1964C86.5193 26.1337 82.8806 28.2654 81.4704 29.1536C80.217 29.943 79.0357 29.5569 79.0357 29.5569C79.0357 29.5569 80.0047 30.5755 80.5621 30.9184C81.1194 31.2612 83.6639 32.9849 86.416 33.4105C89.1681 33.8361 91.6602 31.5142 93.2269 31.369C94.7936 31.2238 96.4915 32.6907 96.4915 32.6907C96.4915 32.6907 94.9674 31.806 93.5014 32.1716C92.0355 32.5372 90.645 34.7975 87.295 34.4793C83.945 34.1612 79.0803 31.3167 77.9554 29.1036C77.4039 28.0185 78.4484 29.3488 79.8265 29.04C81.1052 28.7535 83.3487 26.8849 85.7799 26.471C88.5523 25.9991 91.2693 28.2109 91.16 28.1964Z" fill="#E10BCC" fill-opacity="0.64"/>
<path fill-rule="evenodd" clip-rule="evenodd" d="M93.7391 24.9986C92.9028 20.3069 88.8147 18.1759 87.1736 17.3758C85.7149 16.6645 85.3748 15.5276 85.3748 15.5276C85.3748 15.5276 85.0112 16.75 85.0245 17.3527C85.0379 17.9554 84.9538 20.7726 86.18 23.2256C87.4062 25.6787 90.9952 26.7822 92.048 28.0187C93.1009 29.2552 92.7547 31.2658 92.7547 31.2658C92.7547 31.2658 92.6699 29.6393 91.4744 28.5772C90.279 27.5151 87.3932 27.2977 85.7175 24.3943C84.0419 21.4908 83.7899 16.291 85.1555 14.4465C85.8251 13.5421 85.2205 14.9557 86.3123 15.9685C87.3254 16.9084 90.3535 17.9934 92.1599 19.8343C94.2197 21.9336 93.7901 25.095 93.7391 24.9986Z" fill="#E10BCC" fill-opacity="0.64"/>
<path fill-rule="evenodd" clip-rule="evenodd" d="M98.1317 25.6482C101.936 23.0192 101.487 18.7566 101.256 17.0683C101.05 15.5676 101.892 14.8168 101.892 14.8168C101.892 14.8168 100.559 15.0206 100.015 15.2804C99.4711 15.5403 96.8424 16.6338 95.3166 18.6612C93.7907 20.6886 94.8876 24.1141 94.3737 25.4958C93.8598 26.8775 91.8159 27.4211 91.8159 27.4211C91.8159 27.4211 93.2551 26.6794 93.5256 25.2517C93.7961 23.824 92.3008 21.3463 93.9751 18.761C95.6495 16.1757 100.262 13.8204 102.753 14.189C103.974 14.3697 102.325 14.453 102.038 15.7746C101.773 17.0009 102.557 19.9546 101.933 22.2094C101.22 24.7806 98.0733 25.7302 98.1317 25.6482Z" fill="#E10BCC" fill-opacity="0.64"/>
</svg>
