<svg width="108" height="26" viewBox="0 0 108 26" fill="none" xmlns="http://www.w3.org/2000/svg">
<path d="M42.6214 15.2285L48.5808 22.2857H43.875L38.5714 15.8043V22.2857H34.7142V3.71434H38.5714V14.6343L43.47 9.28566H48.3878L42.6214 15.2285ZM27.1928 8.91434C26.3483 8.92652 25.5194 9.13562 24.7771 9.52372C24.0349 9.91183 23.4013 10.4674 22.9308 11.1428V9.28566H19.2858V22.2857H23.1428V16.2128C23.0921 15.772 23.1363 15.3259 23.2724 14.9023C23.4085 14.4786 23.6337 14.0865 23.934 13.7502C24.2343 13.414 24.6033 13.1409 25.0179 12.9479C25.4326 12.7549 25.884 12.6462 26.3442 12.6285C28.5814 12.6285 28.9286 14.7457 28.9286 16.2128V22.2857H32.7858V15.3957C32.7858 11.31 31.3778 8.91434 27.27 8.91434H27.1928ZM61.7142 16.0828C61.729 16.355 61.729 16.6278 61.7142 16.9H51.5892V17.03C51.7536 17.8044 52.1991 18.4971 52.8459 18.9838C53.4927 19.4705 54.2985 19.7193 55.1186 19.6857C55.7692 19.7129 56.4188 19.6135 57.0285 19.3933C57.6383 19.1731 58.1956 18.8368 58.6672 18.4043L61.2322 20.2615C60.4192 21.0604 59.4414 21.6863 58.3618 22.0989C57.2822 22.5116 56.1248 22.7017 54.9642 22.6572C54.003 22.7157 53.04 22.5748 52.1402 22.2442C51.2404 21.9136 50.4248 21.4009 49.7484 20.7408C49.072 20.0806 48.5506 19.2883 48.2194 18.4175C47.8882 17.5467 47.7549 16.6175 47.8286 15.6928C47.8088 14.78 47.9846 13.873 48.3448 13.0285C48.705 12.1839 49.242 11.4198 49.9223 10.7839C50.6026 10.1479 51.4117 9.65372 52.2991 9.33207C53.1864 9.01043 54.1331 8.86823 55.08 8.91434C58.7058 8.91434 61.7142 11.3843 61.7142 16.0828ZM58.1272 14.4857C58.113 14.1178 58.0212 13.7566 57.8574 13.424C57.6935 13.0914 57.461 12.7945 57.1741 12.5512C56.8872 12.3079 56.5519 12.1235 56.1886 12.009C55.8252 11.8946 55.4415 11.8526 55.0608 11.8857C53.3649 11.7091 51.829 12.8594 51.5892 14.4857H58.1272ZM3.8572 3.71434H0V22.2857H11.5714V18.5717H3.8572V3.71434ZM73.2858 3.71434H77.1428V22.2857H73.4978V20.9857C73.0349 21.5348 72.445 21.972 71.7753 22.2622C71.1056 22.5525 70.3746 22.6877 69.6408 22.6572C68.7443 22.635 67.8621 22.4365 67.0482 22.0739C66.2344 21.7114 65.5061 21.1923 64.9082 20.5487C64.3103 19.9051 63.8554 19.1506 63.5715 18.3315C63.2876 17.5124 63.1806 16.646 63.2572 15.7857C63.1661 14.9241 63.2623 14.0537 63.5396 13.2298C63.8169 12.406 64.2693 11.6467 64.8679 11.0004C65.4665 10.3541 66.1983 9.83482 67.0167 9.47568C67.8351 9.11654 68.7221 8.92537 69.6214 8.91434C70.2912 8.88608 70.9602 8.98647 71.5893 9.20966C72.2184 9.43285 72.7951 9.77438 73.2858 10.2143V3.71434ZM73.575 15.7857C73.6356 15.3568 73.6001 14.9204 73.4707 14.5059C73.3414 14.0915 73.1213 13.7085 72.8252 13.3829C72.5291 13.0573 72.1639 12.7966 71.7543 12.6184C71.3447 12.4402 70.9003 12.3487 70.4508 12.35C68.6057 12.479 67.2076 14.0069 67.3072 15.7857C67.2076 17.5644 68.6057 19.0925 70.4508 19.2215C70.9003 19.2228 71.3448 19.1313 71.7544 18.9531C72.164 18.7749 72.5292 18.5142 72.8253 18.1886C73.1214 17.8629 73.3415 17.4799 73.4708 17.0654C73.6002 16.6509 73.6357 16.2145 73.575 15.7857ZM15.4286 3.34283C14.8083 3.35129 14.2145 3.58608 13.7671 3.99978C13.3196 4.41348 13.0518 4.97528 13.0178 5.57172C13.0178 6.85364 14.0972 7.89303 15.4286 7.89303C16.76 7.89303 17.839 6.85344 17.839 5.57172C17.8049 4.97535 17.5371 4.41363 17.0897 3.99998C16.6423 3.58632 16.0488 3.35134 15.4286 3.34283ZM13.5 22.2857H17.3572V9.28566H13.5V22.2857ZM108 1.85717V24.1428C108 24.6354 107.797 25.1078 107.435 25.456C107.073 25.8043 106.583 26 106.071 26H82.9286C82.4171 26 81.9266 25.8043 81.5649 25.456C81.2032 25.1078 81 24.6354 81 24.1428V1.85717C81 1.36462 81.2032 0.89224 81.5649 0.543953C81.9266 0.195666 82.4171 0 82.9286 0L106.071 0C106.583 0 107.073 0.195666 107.435 0.543953C107.797 0.89224 108 1.36462 108 1.85717ZM88.7142 9.28566H84.8572V22.2857H88.7142V9.28566ZM89.1964 5.57152C89.1964 4.28939 88.117 3.25 86.7858 3.25C85.4544 3.25 84.375 4.28939 84.375 5.57152C84.375 6.85344 85.4544 7.89283 86.7858 7.89283C88.117 7.89283 89.1964 6.85344 89.1964 5.57152ZM104.143 15.3957C104.143 11.31 102.735 8.91434 98.6272 8.91434C97.7695 8.91441 96.9251 9.11774 96.1683 9.50638C95.4115 9.89501 94.7657 10.457 94.2878 11.1428V9.28566H90.6428V22.2857H94.5V16.2128C94.4493 15.772 94.4935 15.3259 94.6296 14.9023C94.7657 14.4786 94.9909 14.0865 95.2912 13.7502C95.5915 13.414 95.9605 13.1409 96.3751 12.9479C96.7898 12.7549 97.2412 12.6462 97.7014 12.6285C99.9386 12.6285 100.286 14.7457 100.286 16.2128V22.2857H104.143V15.3957Z" fill="#0A66C2"/>
</svg>
